# xmcd
#
# Track frame offsets: 
#        150
#        2770
#        19115
#        56237
#        79251
#        105221
#        129666
#        151540
#        163111
#        191235
#        211226
#        230055
#        250664
#        275138
#        291114
#        317723
#        340467
#
# Disc length: 4771 seconds
#
# Revision: 2
# Processed by: cddbd v1.4PL0 Copyright (c) Steve Scherf et al.
# Submitted via: ExactAudioCopy v0.90b2
#
DISCID=f112a111
DTITLE=Various Artist - 100% Dream - Music For Your Mind Vol.5 [CD1)
DYEAR=2001
DGENRE=Dream
TTITLE0=Intro by N'Dreams
TTITLE1=Safri Duo - Played-a-live (Original Club Mix)
TTITLE2=Delerium feat. Sarah McLachlan - Silence (Airscape Remix)
TTITLE3=Chicane - Autumn Tactics (Thrillseekers Remix)
TTITLE4=Paul Van Dyk - Face to Face (Piano Outtake)
TTITLE5=Lost Witness - 7 Colours (Angelic Remix)
TTITLE6=York - Farewell to the Moon (Club Mix)
TTITLE7=Fragma - Everytime You Need Me (Above and Beyond Rmx)
TTITLE8=Solar Stone - Seven Cities (Solar Stone's Atlantis Mix)
TTITLE9=Jakatta - American Dream (Joey Negro Club Mix)
TTITLE10=Paul @ Filed - Tears From a Small Peace of Nothing (Club Mix)
TTITLE11=JBN - All I Want (Fragma Rmx)
TTITLE12=CJ Stone - Shining Star
TTITLE13=Cygnus X - Superstring (Original Mix)
TTITLE14=Gouryella - Tenshi (Original Mix)
TTITLE15=Miasma - Falling (Club Mix)
TTITLE16=Orion - Eternity (Acoustic Mix)
EXTD=
EXTT0=
EXTT1=
EXTT2=
EXTT3=
EXTT4=
EXTT5=
EXTT6=
EXTT7=
EXTT8=
EXTT9=
EXTT10=
EXTT11=
EXTT12=
EXTT13=
EXTT14=
EXTT15=
EXTT16=
PLAYORDER=
